<?xml version="1.0" standalone="no"?>
<!DOCTYPE svg PUBLIC "-//W3C//DTD SVG 20010904//EN" "http://www.w3.org/TR/2001/REC-SVG-20010904/DTD/svg10.dtd">
<svg version="1.0" xmlns="http://www.w3.org/2000/svg" width="700.000000pt" height="700.000000pt" viewBox="0 0 700.000000 700.000000" preserveAspectRatio="xMidYMid meet">
  <g transform="translate(0.000000,700.000000) scale(0.100000,-0.100000)" fill="#000000" stroke="none">
    <path d="M3265 5469 c-108 -14 -305 -65 -405 -104 -602 -232 -1016 -733 -1142
-1380 -21 -108 -22 -133 -25 -1287 l-4 -1178 296 0 295 0 0 1144 c0 989 2
1155 15 1227 121 652 735 1093 1385 995 519 -79 929 -477 1025 -995 13 -72 15
-238 15 -1227 l0 -1144 295 0 295 0 0 1109 c0 700 -4 1147 -10 1212 -63 623
-418 1151 -964 1435 -169 88 -320 141 -516 179 -100 20 -446 29 -555 14z" />
    <path d="M3404 4532 c-86 -30 -161 -109 -184 -191 -5 -20 -10 -111 -10 -203
l0 -167 -47 -6 c-81 -10 -165 -35 -228 -68 -85 -44 -203 -165 -244 -247 -69
-141 -64 -73 -68 -1152 l-4 -978 296 0 295 0 0 1225 0 1225 290 0 290 0 0
-1225 0 -1225 295 0 296 0 -4 978 c-4 1079 1 1011 -68 1152 -42 85 -161 206
-246 248 -65 33 -147 57 -225 67 l-48 6 0 169 c0 198 -13 248 -82 319 -77 81
-200 110 -304 73z" />
  </g>
</svg>